<?xml version="1.0" encoding="utf-8"?>
<!-- Generator: Adobe Illustrator 25.4.1, SVG Export Plug-In . SVG Version: 6.00 Build 0)  -->
<svg version="1.1" id="Layer_1" xmlns="http://www.w3.org/2000/svg" xmlns:xlink="http://www.w3.org/1999/xlink" x="0px" y="0px"
	 viewBox="0 0 236.5 104.1" style="enable-background:new 0 0 236.5 104.1;" xml:space="preserve">
<style type="text/css">
	.st0{fill:#4D4D4D;}
	.st1{fill:url(#SVGID_1_);}
	.st2{fill:url(#SVGID_00000008125468884744936640000008578728341856209594_);}
	.st3{opacity:0.73;}
	.st4{fill:#FFFFFF;}
	.st5{fill:url(#SVGID_00000143609176470369375370000003077931456880295615_);}
	.st6{fill:url(#SVGID_00000126297171151996323460000005153336797646204857_);}
	.st7{fill:url(#SVGID_00000015312724911269616100000004167419468405829274_);}
	.st8{opacity:0.7;}
	.st9{fill:#45B494;}
</style>
<g>
	<g>
		<g>
			<path class="st0" d="M220.6,20.2c0-1.2,0.5-2.3,1.5-3c2-1.6,3-4.4,2.5-7.3c-0.1-0.7-1.1-6.7-14-6.7c0,0-128.4,0-169.6,0l0,0L5,1
				C3,1,1.7,4.8,1.7,6.7v22.5l1.6,47.3l0.4,8.8c0.1,1.9,1.6,3.4,3.5,3.4l34,0.5l179,0.6c2,0,3.7-1.7,3.6-3.8
				C223.1,73.3,220.9,30.3,220.6,20.2z"/>
		</g>
		
			<linearGradient id="SVGID_1_" gradientUnits="userSpaceOnUse" x1="2.119" y1="105.6602" x2="219.9221" y2="12.7737" gradientTransform="matrix(1 0 0 -1 0 106)">
			<stop  offset="0" style="stop-color:#F7F7F7"/>
			<stop  offset="2.447155e-02" style="stop-color:#F8F8F8"/>
			<stop  offset="0.2995" style="stop-color:#FCFCFC"/>
			<stop  offset="0.8783" style="stop-color:#F3F3F3"/>
			<stop  offset="0.9071" style="stop-color:#F2F2F2"/>
			<stop  offset="1" style="stop-color:#EBEBEB"/>
		</linearGradient>
		<path class="st1" d="M220.5,16.1c2.9-1.3,4.7-4.8,4-8.4c-0.1-0.7-1.1-7-14.1-7c0,0-129.3,0-170.9,0l0,0H0v27l1.7,49l0.5,14.5
			l37.4-0.6h184.3C223.9,90.6,220.3,16.2,220.5,16.1z"/>
		
			<linearGradient id="SVGID_00000181799601463597929860000016966136268155038110_" gradientUnits="userSpaceOnUse" x1="228.2345" y1="75.2435" x2="176.6362" y2="68.6349" gradientTransform="matrix(1 0 0 -1 0 106)">
			<stop  offset="0" style="stop-color:#CFCFCF"/>
			<stop  offset="0.3064" style="stop-color:#E0E0E0"/>
			<stop  offset="0.6649" style="stop-color:#EDEDED"/>
			<stop  offset="1" style="stop-color:#F1F1F1"/>
		</linearGradient>
		<path style="fill:url(#SVGID_00000181799601463597929860000016966136268155038110_);" d="M220.5,16.1c2.9-1.3,4.7-4.8,4-8.4
			c-0.1-0.7-1.1-7-14.1-7c0,0-129.3,0-170.9,0l0,0H0v27l1.7,49l0.5,14.5l37.4-0.6h184.3C223.9,90.6,220.3,16.2,220.5,16.1z"/>
		<g class="st3">
			<path class="st4" d="M211.6,0.6l-0.1,0.2l0,0l-86,0.7L104,1.6H82.5L61.1,1.5c-7.2,0-14.3-0.2-21.5-0.2H39V0.7l0,0l0.6,0.6L0,0.6
				L39.6,0h0.6v0.6l0,0L39.6,0l10.7,0.2c3.6,0.1,7.2,0.1,10.7,0.1l21.5,0.1L104,0.6h21.5h86l0,0H211.6z"/>
		</g>
		<g>
			<g>
				<defs>
					<path id="SVGID_00000150070249284640525260000010513074050228124095_" d="M220.5,16.1c2.9-1.3,4.7-4.8,4-8.4
						c-0.1-0.7-1.1-7-14.1-7c0,0-129.3,0-170.9,0l0,0H0v27l1.7,49l0.5,14.5l37.4-0.6h184.3C223.9,90.6,220.3,16.2,220.5,16.1z"/>
				</defs>
				<clipPath id="SVGID_00000116930944328625007750000013268707337442408125_">
					<use xlink:href="#SVGID_00000150070249284640525260000010513074050228124095_"  style="overflow:visible;"/>
				</clipPath>
			</g>
		</g>
		
			<linearGradient id="SVGID_00000009572346005445754710000004038153077608940728_" gradientUnits="userSpaceOnUse" x1="195.1664" y1="89.3428" x2="202.6979" y2="91.311" gradientTransform="matrix(1 0 0 -1 0 106)">
			<stop  offset="4.746230e-02" style="stop-color:#DBDBDB"/>
			<stop  offset="0.6704" style="stop-color:#FFFFFF"/>
			<stop  offset="0.8695" style="stop-color:#FDFDFD"/>
			<stop  offset="0.9412" style="stop-color:#F6F6F6"/>
			<stop  offset="0.9922" style="stop-color:#EBEBEB"/>
			<stop  offset="1" style="stop-color:#E8E8E8"/>
		</linearGradient>
		<path style="fill:url(#SVGID_00000009572346005445754710000004038153077608940728_);" d="M201.4,8c-8.1,1-6.6,9-6.6,9l0.9,2.2
			l8.6,2.2C204.3,21.5,202.6,13.9,201.4,8z"/>
		
			<linearGradient id="SVGID_00000062878856974791663150000007757376345140343197_" gradientUnits="userSpaceOnUse" x1="205.2899" y1="46.0171" x2="233.4809" y2="51.8884" gradientTransform="matrix(1 0 0 -1 0 106)">
			<stop  offset="0" style="stop-color:#E8E8E8"/>
			<stop  offset="0.2458" style="stop-color:#DBDBDB"/>
			<stop  offset="0.4552" style="stop-color:#E4E4E4"/>
			<stop  offset="0.7988" style="stop-color:#FDFDFD"/>
			<stop  offset="0.824" style="stop-color:#FFFFFF"/>
			<stop  offset="1" style="stop-color:#F7F7F7"/>
		</linearGradient>
		<path style="fill:url(#SVGID_00000062878856974791663150000007757376345140343197_);" d="M236.3,93.5l-10.8-80.6l-0.9-5.4v0.1
			c0.3,3.4-1.8,6.4-4.6,8c-5.6,3-11.7,4-15.9,4.4c-4.7,0.4-8.7-0.9-9.2-2.9c0.5,4.4,12.8,51.6,20.3,82c0.2,0.9,2.4,4.3,5.5,4.8
			c4.6,0.7,8.6-0.1,12.2-2C237.1,99.6,236.6,95.1,236.3,93.5z"/>
		
			<linearGradient id="SVGID_00000168831338292164128490000011176857499426936968_" gradientUnits="userSpaceOnUse" x1="205.2899" y1="46.0171" x2="233.4809" y2="51.8884" gradientTransform="matrix(1 0 0 -1 0 106)">
			<stop  offset="0" style="stop-color:#FAFAFA"/>
			<stop  offset="0.1427" style="stop-color:#DBDBDB"/>
			<stop  offset="0.2091" style="stop-color:#E6E6E6"/>
			<stop  offset="0.3484" style="stop-color:#F8F8F8"/>
			<stop  offset="0.4477" style="stop-color:#FFFFFF"/>
			<stop  offset="1" style="stop-color:#F7F7F7"/>
		</linearGradient>
		<path style="fill:url(#SVGID_00000168831338292164128490000011176857499426936968_);" d="M236.3,93.5l-10.8-80.6l-0.9-5.4v0.1
			c0.3,3.4-1.8,6.4-4.6,8c-5.6,3-11.7,4-15.9,4.4c-4.7,0.4-8.7-0.9-9.2-2.9c0.5,4.4,12.8,51.6,20.3,82c0.2,0.9,2.4,4.3,5.5,4.8
			c4.6,0.7,8.6-0.1,12.2-2C237.1,99.6,236.6,95.1,236.3,93.5z"/>
		<g>
			<path class="st4" d="M201.4,8c0,0-0.3,0-0.8,0.2c-0.5,0.1-1.2,0.4-2.1,0.8c-0.8,0.4-1.8,1.1-2.6,2.2s-1.1,2.6-1,4.2
				c0.1,0.8,0.3,1.6,0.7,2.3c0.5,0.7,1.2,1.2,2,1.5c1.7,0.7,3.7,0.7,5.7,0.6s4.1-0.5,6.1-1c2.1-0.5,4.2-1.1,6.2-1.8
				c2-0.7,4-1.7,5.6-2.9s3-3,3-4.9s-1-3.7-2.3-4.9c-1.4-1.2-3-1.9-4.6-2.3c-3.1-0.9-5.9-1-7.8-1.1c-1.9,0-3-0.1-3-0.1s1.1,0,3-0.1
				c1,0,2.1,0,3.4,0.1c1.3,0.1,2.8,0.3,4.4,0.7c1.6,0.4,3.3,1.1,4.8,2.3c1.5,1.3,2.6,3.2,2.6,5.4c0,1.1-0.4,2.2-0.9,3.1
				c-0.6,0.9-1.4,1.7-2.2,2.4c-1.7,1.4-3.7,2.4-5.8,3.2c-2.1,0.8-4.2,1.4-6.3,1.9s-4.2,0.8-6.3,0.9s-4.1,0-6-0.8
				c-0.9-0.4-1.7-1-2.2-1.8s-0.6-1.7-0.7-2.6c-0.1-1.7,0.3-3.3,1.2-4.3c0.8-1.1,1.9-1.7,2.7-2.1c0.9-0.4,1.6-0.6,2.1-0.7
				C201.1,8,201.4,8,201.4,8z"/>
		</g>
		<g class="st8">
			<path class="st4" d="M1.3,61.1c-0.3,0-0.1,0.1-0.2,0.1v0.1v0.2V62v0.9l0.1,1.9l0.2,3.8c0.1,2.5,0.2,5,0.4,7.5l0.5,7.5
				c0.2,2.5,0.4,5,0.7,7.5l-0.9-0.9c1.3-0.1,2.7,0,4,0l4,0.1l8.1,0.1l16.1,0.2L2.2,91.3H2.1v-0.1L1.6,76.1l-0.2-7.5l-0.1-3.8L1.2,63
				c0-0.6,0-1.3-0.1-1.9H1.3z"/>
		</g>
	</g>
	<g>
		<path class="st9" d="M80.3,23.6c0,0,0.7,0.8,1.7,0.8c0.4,0,0.7-0.1,0.7-0.5c0-0.8-3.3-0.9-3.3-3.1c0-1.3,1.1-2.1,2.6-2.1
			c1,0,2.3,0.5,2.3,1.5V21h-1.6v-0.3c0-0.3-0.4-0.4-0.7-0.4c-0.4,0-0.7,0.1-0.7,0.5c0,0.9,3.3,0.7,3.3,3.1c0,1.2-0.9,2.2-2.6,2.2
			s-2.6-1.2-2.6-1.2L80.3,23.6z"/>
		<path class="st9" d="M87.2,20.3h-0.6c-0.1,0-0.2,0.1-0.2,0.2v0.4h-1.6v-1.4c0-0.5,0.2-0.7,0.7-0.7h5.2c0.5,0,0.7,0.2,0.7,0.7v1.4
			h-1.6v-0.4c0-0.1-0.1-0.2-0.2-0.2H89v5.6h-1.8V20.3z"/>
		<path class="st9" d="M95.5,18.6c2.2,0,3.8,1.6,3.8,3.6c0,2.1-1.6,3.7-3.8,3.7c-2.2,0-3.8-1.6-3.8-3.7
			C91.7,20.2,93.3,18.6,95.5,18.6z M95.5,24.4c1,0,1.9-0.9,1.9-2.1c0-1.1-0.8-2-1.9-2c-1,0-1.9,0.9-1.9,2
			C93.6,23.5,94.4,24.4,95.5,24.4z"/>
		<path class="st9" d="M100.4,20.3h-0.7v-1.5h3.5c1.4,0,2.4,1,2.4,2.4s-0.9,2.5-2.4,2.5h-1v2.2h-1.8V20.3z M102.9,22.2
			c0.6,0,0.9-0.4,0.9-1s-0.3-1-0.8-1h-0.7v1.9h0.6V22.2z"/>
		<path class="st9" d="M105.4,24.4h0.2c0.2,0,0.2,0,0.3-0.2l2-5.4h1.9l2,5.4c0.1,0.2,0.1,0.2,0.3,0.2h0.2v1.5H111
			c-0.5,0-0.7-0.1-0.8-0.6l-0.3-0.9h-2.1l-0.3,0.9c-0.1,0.4-0.3,0.6-0.8,0.6h-1.2L105.4,24.4L105.4,24.4z M109.4,22.9l-0.4-1.2
			c-0.1-0.4-0.3-1.2-0.3-1.2l0,0c0,0-0.2,0.7-0.3,1.2l-0.4,1.2H109.4z"/>
		<path class="st9" d="M115.4,21.8h8v1.3h-8V21.8z"/>
		<path class="st9" d="M16.5,33.6c2.2,0,3.8,1.6,3.8,3.6c0,2.1-1.6,3.7-3.8,3.7s-3.8-1.6-3.8-3.7C12.8,35.2,14.4,33.6,16.5,33.6z
			 M16.5,39.4c1,0,1.9-0.9,1.9-2.1c0-1.1-0.8-2-1.9-2c-1,0-1.9,0.9-1.9,2C14.6,38.5,15.5,39.4,16.5,39.4z"/>
		<path class="st9" d="M24,34.1v-0.7h1.8v0.7c2,0,3.2,1.3,3.2,2.9c0,1.7-1.2,3-3.2,3v1H24v-0.9c-2,0-3.2-1.3-3.2-3
			C20.7,35.4,21.9,34.1,24,34.1z M24,38.6v-3c-0.9,0-1.4,0.6-1.4,1.4C22.6,37.9,23.1,38.6,24,38.6z M27.2,37.1
			c0-0.8-0.5-1.4-1.4-1.4v3C26.7,38.6,27.2,37.9,27.2,37.1z"/>
		<path class="st9" d="M30.1,35.5c0-0.1-0.1-0.2-0.2-0.2h-0.4v-1.5h1.7c0.5,0,0.7,0.2,0.7,0.7v2.4c0,0.4-0.1,1.2-0.1,1.2l0,0
			c0,0,0.4-0.7,0.7-1.2l1.9-3.2h1.8v5.4c0,0.1,0.1,0.2,0.2,0.2h0.4v1.5h-1.7c-0.5,0-0.7-0.2-0.7-0.7v-2.4c0-0.4,0.1-1.2,0.1-1.2l0,0
			c0,0-0.4,0.8-0.6,1.2L32,40.9h-1.8v-5.4H30.1z"/>
		<path class="st9" d="M38,35.5c0-0.1-0.1-0.2-0.2-0.2h-0.4v-1.5h1.7c0.5,0,0.7,0.2,0.7,0.7v4.7c0,0.1,0.1,0.2,0.2,0.2h2.2v-5.6H44
			v5.6h0.2c0.5,0,0.7,0.2,0.7,0.7v2.2h-1.6v-1.2c0-0.1-0.1-0.2-0.2-0.2h-4.5c-0.5,0-0.7-0.2-0.7-0.7L38,35.5L38,35.5z"/>
		<path class="st9" d="M46.1,35.5c0-0.1-0.1-0.2-0.2-0.2h-0.4v-1.5h1.7c0.5,0,0.7,0.2,0.7,0.7v2.4c0,0.4-0.1,1.2-0.1,1.2l0,0
			c0,0,0.4-0.7,0.7-1.2l1.9-3.2h1.8v5.4c0,0.1,0.1,0.2,0.2,0.2h0.4v1.5h-1.7c-0.5,0-0.7-0.2-0.7-0.7v-2.4c0-0.4,0.1-1.2,0.1-1.2l0,0
			c0,0-0.4,0.8-0.6,1.2L48,40.9h-1.8v-5.4H46.1z"/>
		<path class="st9" d="M53.2,39.4h0.2c0.2,0,0.2,0,0.3-0.2l2-5.4h1.9l2,5.4c0.1,0.2,0.1,0.2,0.3,0.2h0.2v1.5h-1.2
			c-0.5,0-0.7-0.1-0.8-0.6l-0.3-0.9h-2.1l-0.3,0.9c-0.1,0.4-0.3,0.6-0.8,0.6h-1.2v-1.5H53.2z M57.2,37.9l-0.4-1.2
			c-0.1-0.4-0.3-1.2-0.3-1.2l0,0c0,0-0.2,0.7-0.3,1.2l-0.4,1.2H57.2z"/>
		<path class="st9" d="M60.2,39.4c0.9-0.1,1.4-0.7,1.4-3.3v-0.8h-0.7v-1.5h4.8c0.5,0,0.7,0.2,0.7,0.7v4.7c0,0.1,0.1,0.2,0.2,0.2H67
			v1.5h-1.7c-0.5,0-0.7-0.2-0.7-0.7v-4.7c0-0.1-0.1-0.2-0.2-0.2h-1.1v0.9c0,3.5-1.1,4.8-3.1,4.8L60.2,39.4L60.2,39.4z"/>
		<path class="st9" d="M68.3,35.5c0-0.1-0.1-0.2-0.2-0.2h-0.4v-1.5h1.7c0.5,0,0.7,0.2,0.7,0.7V36h1.1c1.2,0,2.5,0.6,2.5,2.3
			c0,1.9-1.3,2.6-2.8,2.6H69c-0.5,0-0.7-0.2-0.7-0.7V35.5z M70.3,39.4H71c0.5,0,0.8-0.4,0.8-1c0-0.5-0.3-0.9-0.8-0.9h-0.9v1.7
			C70.1,39.3,70.2,39.4,70.3,39.4z"/>
		<path class="st9" d="M74.6,35.5c0-0.1-0.1-0.2-0.2-0.2H74v-1.5h1.7c0.5,0,0.7,0.2,0.7,0.7v2.1h2.4v-2.1c0-0.5,0.2-0.7,0.7-0.7h1.7
			v1.5h-0.4c-0.1,0-0.2,0.1-0.2,0.2v5.4h-1.8v-2.8h-2.4v2.8h-1.8L74.6,35.5L74.6,35.5z"/>
		<path class="st9" d="M82.4,35.5c0-0.1-0.1-0.2-0.2-0.2h-0.4v-1.5h1.7c0.5,0,0.7,0.2,0.7,0.7V36h1c1.2,0,2.5,0.6,2.5,2.4
			c0,1.8-1.3,2.5-2.8,2.5h-1.7c-0.5,0-0.7-0.2-0.7-0.7L82.4,35.5L82.4,35.5z M84.5,39.4H85c0.5,0,0.8-0.4,0.8-1s-0.3-0.9-0.8-0.9
			h-0.8v1.7C84.2,39.3,84.3,39.4,84.5,39.4z M88.5,33.8h1.8v5.4c0,0.1,0.1,0.2,0.2,0.2h0.4v1.5h-1.7c-0.5,0-0.7-0.2-0.7-0.7
			C88.5,40.2,88.5,33.8,88.5,33.8z"/>
		<path class="st9" d="M92.1,35.5c0-0.1-0.1-0.2-0.2-0.2h-0.4v-1.5h1.7c0.5,0,0.7,0.2,0.7,0.7v2.4c0,0.4-0.1,1.2-0.1,1.2l0,0
			c0,0,0.4-0.7,0.7-1.2l1.9-3.2h1.8v5.4c0,0.1,0.1,0.2,0.2,0.2h0.4v1.5h-1.7c-0.5,0-0.7-0.2-0.7-0.7v-2.4c0-0.4,0.1-1.2,0.1-1.2l0,0
			c0,0-0.4,0.8-0.6,1.2L94,40.9h-1.8L92.1,35.5L92.1,35.5z M93.3,31.9v-0.1h1.3v0.1c0,0.4,0.3,0.6,0.6,0.6c0.3,0,0.6-0.2,0.6-0.6
			v-0.1h1.3v0.1c0,1-0.9,1.5-1.9,1.5C94.2,33.4,93.3,32.9,93.3,31.9z"/>
		<path class="st9" d="M102.6,35.3h-0.7v-1.5h5.8c0.5,0,0.7,0.2,0.7,0.7v4.7c0,0.1,0.1,0.2,0.2,0.2h0.4v1.5h-1.7
			c-0.5,0-0.7-0.2-0.7-0.7v-4.7c0-0.1-0.1-0.2-0.2-0.2h-2.1v5.6h-1.8L102.6,35.3L102.6,35.3z"/>
		<path class="st9" d="M110.3,35.3h-0.7v-1.5h3.5c1.4,0,2.4,1,2.4,2.4s-0.9,2.5-2.4,2.5h-1v2.2h-1.8V35.3z M112.8,37.2
			c0.6,0,0.9-0.4,0.9-1s-0.3-1-0.8-1h-0.7v1.9L112.8,37.2L112.8,37.2z"/>
		<path class="st9" d="M116.5,35.3h-0.7v-1.5h4.5c0.5,0,0.7,0.2,0.7,0.7v1.4h-1.6v-0.4c0-0.1-0.1-0.2-0.2-0.2h-1v1.3h2.1V38h-2.1
			v1.1c0,0.1,0.1,0.2,0.2,0.2h1c0.1,0,0.2-0.1,0.2-0.2v-0.4h1.6v1.4c0,0.5-0.2,0.7-0.7,0.7h-3.4c-0.5,0-0.7-0.2-0.7-0.7L116.5,35.3
			L116.5,35.3z"/>
		<path class="st9" d="M122.5,39.4L122.5,39.4c0.8-1.3,1-2.7,1-3.9v-0.2h-0.7v-1.5h4.9c0.5,0,0.7,0.2,0.7,0.7v4.9h0.1
			c0.5,0,0.7,0.2,0.7,0.7v2.2h-1.6v-1.2c0-0.1-0.1-0.2-0.2-0.2h-3.8c-0.1,0-0.2,0.1-0.2,0.2v1.2h-1.6v-2.2
			C121.8,39.6,122,39.4,122.5,39.4z M126.6,39.4v-3.9c0-0.1-0.1-0.2-0.2-0.2h-1.2v0.3c0,1.1-0.2,2.7-0.8,3.8
			C124.4,39.4,126.6,39.4,126.6,39.4z"/>
		<path class="st9" d="M133.3,33.6c0.9,0,2.8,0.3,2.8,1.7v0.9h-1.6v-0.4c0-0.4-0.6-0.6-1.1-0.6c-1,0-1.9,0.7-1.9,2
			c0,1.2,0.9,2.1,1.9,2.1c1.3,0,2.1-0.9,2.1-0.9l0.9,1.3c0,0-1.1,1.3-3,1.3c-2.3,0-3.8-1.6-3.8-3.8
			C129.6,35.2,131.2,33.6,133.3,33.6z"/>
		<path class="st9" d="M139,35.3h-0.6c-0.1,0-0.2,0.1-0.2,0.2v0.4h-1.6v-1.4c0-0.5,0.2-0.7,0.7-0.7h5.2c0.5,0,0.7,0.2,0.7,0.7v1.4
			h-1.6v-0.4c0-0.1-0.1-0.2-0.2-0.2h-0.6v5.6H139V35.3z"/>
		<path class="st9" d="M142.7,39.4h0.2c0.2,0,0.2,0,0.3-0.2l2-5.4h1.9l2,5.4c0.1,0.2,0.1,0.2,0.3,0.2h0.2v1.5h-1.2
			c-0.5,0-0.7-0.1-0.8-0.6l-0.3-0.9H145l-0.3,0.9c-0.1,0.4-0.3,0.6-0.8,0.6h-1.2V39.4z M146.8,37.9l-0.4-1.2
			c-0.1-0.4-0.3-1.2-0.3-1.2l0,0c0,0-0.2,0.7-0.3,1.2l-0.4,1.2H146.8z"/>
		<path class="st9" d="M150.4,35.3h-0.7v-1.5h3.3c1.4,0,2.5,0.6,2.5,1.9c0,0.8-0.5,1.3-0.8,1.5l0,0c0.8,0.2,1.1,1,1.1,1.6
			c0,1.6-1.3,2.1-2.7,2.1h-1.9c-0.5,0-0.7-0.2-0.7-0.7v-4.9H150.4z M153.1,36.5c0.4,0,0.6-0.3,0.6-0.7c0-0.3-0.2-0.6-0.6-0.6h-0.9
			v1.3H153.1z M152.4,39.4h0.9c0.5,0,0.7-0.3,0.7-0.7s-0.2-0.7-0.7-0.7h-1.1v1.3C152.2,39.3,152.2,39.4,152.4,39.4z"/>
		<path class="st9" d="M157,35.5c0-0.1-0.1-0.2-0.2-0.2h-0.4v-1.5h1.7c0.5,0,0.7,0.2,0.7,0.7v2.4c0,0.4-0.1,1.2-0.1,1.2l0,0
			c0,0,0.4-0.7,0.7-1.2l1.9-3.2h1.8v5.4c0,0.1,0.1,0.2,0.2,0.2h0.4v1.5H162c-0.5,0-0.7-0.2-0.7-0.7v-2.4c0-0.4,0.1-1.2,0.1-1.2l0,0
			c0,0-0.4,0.8-0.6,1.2l-1.9,3.2H157V35.5z"/>
		<path class="st9" d="M166.4,35.3h-0.6c-0.1,0-0.2,0.1-0.2,0.2v0.4H164v-1.4c0-0.5,0.2-0.7,0.7-0.7h5.2c0.5,0,0.7,0.2,0.7,0.7v1.4
			H169v-0.4c0-0.1-0.1-0.2-0.2-0.2h-0.6v5.6h-1.8V35.3z"/>
		<path class="st9" d="M171.6,35.3h-0.7v-1.5h4.5c0.5,0,0.7,0.2,0.7,0.7v1.4h-1.6v-0.4c0-0.1-0.1-0.2-0.2-0.2h-1v1.3h2.1V38h-2.1
			v1.1c0,0.1,0.1,0.2,0.2,0.2h1c0.1,0,0.2-0.1,0.2-0.2v-0.4h1.6v1.4c0,0.5-0.2,0.7-0.7,0.7h-3.4c-0.5,0-0.7-0.2-0.7-0.7L171.6,35.3
			L171.6,35.3z"/>
		<path class="st9" d="M176.9,39.4c0.9-0.1,1.4-0.7,1.4-3.3v-0.8h-0.7v-1.5h4.8c0.5,0,0.7,0.2,0.7,0.7v4.7c0,0.1,0.1,0.2,0.2,0.2
			h0.4v1.5H182c-0.5,0-0.7-0.2-0.7-0.7v-4.7c0-0.1-0.1-0.2-0.2-0.2H180v0.9c0,3.5-1.1,4.8-3.1,4.8V39.4z"/>
		<path class="st9" d="M185,35.5c0-0.1-0.1-0.2-0.2-0.2h-0.4v-1.5h1.7c0.5,0,0.7,0.2,0.7,0.7V36h1.1c1.2,0,2.5,0.6,2.5,2.3
			c0,1.9-1.3,2.6-2.8,2.6h-1.8c-0.5,0-0.7-0.2-0.7-0.7v-4.7H185z M187,39.4h0.7c0.5,0,0.8-0.4,0.8-1c0-0.5-0.3-0.9-0.8-0.9h-0.9v1.7
			C186.8,39.3,186.9,39.4,187,39.4z"/>
		<path class="st9" d="M28,52.5l1.7-2h1.6l-1.7,2l1.7,2h-1.6L28,52.5z M30.7,52.5l1.7-2H34l-1.7,2l1.7,2h-1.6L30.7,52.5z"/>
		<path class="st9" d="M35.2,50.5c0-0.1-0.1-0.2-0.2-0.2h-0.4v-1.5h1.7c0.5,0,0.7,0.2,0.7,0.7v2.4c0,0.4-0.1,1.2-0.1,1.2l0,0
			c0,0,0.4-0.7,0.7-1.2l1.9-3.2h1.8v5.4c0,0.1,0.1,0.2,0.2,0.2h0.4v1.5h-1.7c-0.5,0-0.7-0.2-0.7-0.7v-2.4c0-0.4,0.1-1.2,0.1-1.2l0,0
			c0,0-0.4,0.8-0.6,1.2l-2,3.2h-1.8V50.5z"/>
		<path class="st9" d="M43.1,50.5c0-0.1-0.1-0.2-0.2-0.2h-0.4v-1.5h1.7c0.5,0,0.7,0.2,0.7,0.7v2.1h2.4v-2.1c0-0.5,0.2-0.7,0.7-0.7
			h1.7v1.5h-0.4c-0.1,0-0.2,0.1-0.2,0.2v5.4h-1.8v-2.8h-2.4v2.8h-1.8V50.5z"/>
		<path class="st9" d="M54,48.6c0.9,0,2.8,0.3,2.8,1.7v0.9h-1.6v-0.4c0-0.4-0.6-0.6-1.1-0.6c-1,0-1.9,0.7-1.9,2
			c0,1.2,0.9,2.1,1.9,2.1c1.3,0,2.1-0.9,2.1-0.9l0.9,1.3c0,0-1.1,1.3-3,1.3c-2.3,0-3.8-1.6-3.8-3.8C50.3,50.2,51.9,48.6,54,48.6z"/>
		<path class="st9" d="M59.7,50.3h-0.6c-0.1,0-0.2,0.1-0.2,0.2v0.4h-1.6v-1.4c0-0.5,0.2-0.7,0.7-0.7h5.2c0.5,0,0.7,0.2,0.7,0.7v1.4
			h-1.6v-0.4c0-0.1-0.1-0.2-0.2-0.2h-0.6v5.6h-1.8C59.7,55.9,59.7,50.3,59.7,50.3z"/>
		<path class="st9" d="M64.9,50.5c0-0.1-0.1-0.2-0.2-0.2h-0.4v-1.5H66c0.5,0,0.7,0.2,0.7,0.7v2.4c0,0.4-0.1,1.2-0.1,1.2l0,0
			c0,0,0.4-0.7,0.7-1.2l1.9-3.2H71v5.4c0,0.1,0.1,0.2,0.2,0.2h0.4v1.5h-1.7c-0.5,0-0.7-0.2-0.7-0.7v-2.4c0-0.4,0.1-1.2,0.1-1.2l0,0
			c0,0-0.4,0.8-0.6,1.2l-1.9,3.2H65L64.9,50.5L64.9,50.5z"/>
		<path class="st9" d="M74.3,50.3h-0.6c-0.1,0-0.2,0.1-0.2,0.2v0.4H72v-1.4c0-0.5,0.2-0.7,0.7-0.7h5.2c0.5,0,0.7,0.2,0.7,0.7v1.4H77
			v-0.4c0-0.1-0.1-0.2-0.2-0.2h-0.6v5.6h-1.8L74.3,50.3L74.3,50.3z"/>
		<path class="st9" d="M80,54.1c0.2,0.2,0.4,0.3,0.7,0.3c0.3,0,0.5-0.1,0.5-0.4l-1.9-3.5c-0.1-0.2-0.1-0.2-0.3-0.2h-0.3v-1.5h1.2
			c0.5,0,0.7,0.2,0.8,0.6l1,2.2c0.2,0.4,0.3,0.8,0.3,0.8l0,0c0,0,0.1-0.4,0.3-0.8l0.8-2.2c0.2-0.4,0.3-0.6,0.8-0.6h1.2v1.5h-0.3
			c-0.2,0-0.2,0-0.3,0.2l-1.7,4c-0.3,0.7-0.8,1.5-2,1.5c-0.7,0-1.4-0.3-1.7-0.6L80,54.1z"/>
		<path class="st9" d="M87.8,50.3h-0.6c-0.1,0-0.2,0.1-0.2,0.2v0.4h-1.6v-1.4c0-0.5,0.2-0.7,0.7-0.7h5.2c0.5,0,0.7,0.2,0.7,0.7v1.4
			h-1.6v-0.4c0-0.1-0.1-0.2-0.2-0.2h-0.6v5.6h-1.8V50.3z"/>
		<path class="st9" d="M91.5,54.4h0.2c0.2,0,0.2,0,0.3-0.2l2-5.4h1.9l2,5.4c0.1,0.2,0.1,0.2,0.3,0.2h0.2v1.5h-1.2
			c-0.5,0-0.7-0.1-0.8-0.6l-0.3-0.9H94l-0.3,0.9c-0.1,0.4-0.3,0.6-0.8,0.6h-1.2v-1.5H91.5z M95.5,52.9l-0.4-1.2
			c-0.1-0.4-0.3-1.2-0.3-1.2l0,0c0,0-0.2,0.7-0.3,1.2l-0.4,1.2H95.5z"/>
		<path class="st9" d="M101.9,50.3h-0.7v-1.5h5.8c0.5,0,0.7,0.2,0.7,0.7v4.7c0,0.1,0.1,0.2,0.2,0.2h0.4v1.5h-1.7
			c-0.5,0-0.7-0.2-0.7-0.7v-4.7c0-0.1-0.1-0.2-0.2-0.2h-2.1v5.6h-1.8L101.9,50.3L101.9,50.3z"/>
		<path class="st9" d="M112.7,48.6c2.2,0,3.8,1.6,3.8,3.6c0,2.1-1.6,3.7-3.8,3.7c-2.2,0-3.8-1.6-3.8-3.7
			C108.9,50.2,110.5,48.6,112.7,48.6z M112.7,54.4c1,0,1.9-0.9,1.9-2.1c0-1.1-0.8-2-1.9-2c-1,0-1.9,0.9-1.9,2
			C110.8,53.5,111.7,54.4,112.7,54.4z"/>
		<path class="st9" d="M117.2,54.4L117.2,54.4c0.8-1.3,1-2.7,1-3.9v-0.2h-0.7v-1.5h4.9c0.5,0,0.7,0.2,0.7,0.7v4.9h0.1
			c0.5,0,0.7,0.2,0.7,0.7v2.2h-1.6v-1.2c0-0.1-0.1-0.2-0.2-0.2h-3.8c-0.1,0-0.2,0.1-0.2,0.2v1.2h-1.6v-2.2
			C116.6,54.6,116.7,54.4,117.2,54.4z M121.4,54.4v-3.9c0-0.1-0.1-0.2-0.2-0.2H120v0.3c0,1.1-0.2,2.7-0.8,3.8
			C119.2,54.4,121.4,54.4,121.4,54.4z"/>
		<path class="st9" d="M128.1,48.6c2.2,0,3.8,1.6,3.8,3.6c0,2.1-1.6,3.7-3.8,3.7s-3.8-1.6-3.8-3.7C124.3,50.2,125.9,48.6,128.1,48.6
			z M128.1,54.4c1,0,1.9-0.9,1.9-2.1c0-1.1-0.8-2-1.9-2c-1,0-1.9,0.9-1.9,2C126.2,53.5,127,54.4,128.1,54.4z"/>
		<path class="st9" d="M132,54.4c0.9-0.1,1.4-0.7,1.4-3.3v-0.8h-0.7v-1.5h4.8c0.5,0,0.7,0.2,0.7,0.7v4.7c0,0.1,0.1,0.2,0.2,0.2h0.4
			v1.5h-1.7c-0.5,0-0.7-0.2-0.7-0.7v-4.7c0-0.1-0.1-0.2-0.2-0.2h-1.1v0.9c0,3.5-1.1,4.8-3.1,4.8L132,54.4L132,54.4z"/>
		<path class="st9" d="M143.3,48.6c2.2,0,3.8,1.6,3.8,3.6c0,2.1-1.6,3.7-3.8,3.7s-3.8-1.6-3.8-3.7C139.5,50.2,141.1,48.6,143.3,48.6
			z M143.3,54.4c1,0,1.9-0.9,1.9-2.1c0-1.1-0.8-2-1.9-2c-1,0-1.9,0.9-1.9,2C141.4,53.5,142.2,54.4,143.3,54.4z"/>
		<path class="st9" d="M148.2,50.3h-0.7v-1.5h4.5c0.5,0,0.7,0.2,0.7,0.7v1.4h-1.6v-0.4c0-0.1-0.1-0.2-0.2-0.2h-1v5.6h-1.8v-5.6
			H148.2z"/>
		<path class="st9" d="M153.8,50.5c0-0.1-0.1-0.2-0.2-0.2h-0.4v-1.5h1.7c0.5,0,0.7,0.2,0.7,0.7v2.4c0,0.4-0.1,1.2-0.1,1.2l0,0
			c0,0,0.4-0.7,0.7-1.2l1.9-3.2h1.8v5.4c0,0.1,0.1,0.2,0.2,0.2h0.4v1.5h-1.7c-0.5,0-0.7-0.2-0.7-0.7v-2.4c0-0.4,0.1-1.2,0.1-1.2l0,0
			c0,0-0.4,0.8-0.6,1.2l-1.9,3.2h-1.8L153.8,50.5L153.8,50.5z"/>
		<path class="st9" d="M161.7,50.5c0-0.1-0.1-0.2-0.2-0.2h-0.4v-1.5h1.7c0.5,0,0.7,0.2,0.7,0.7v2.4c0,0.4-0.1,1.2-0.1,1.2l0,0
			c0,0,0.4-0.7,0.7-1.2l1.9-3.2h1.8v5.4c0,0.1,0.1,0.2,0.2,0.2h0.4v1.5h-1.7c-0.5,0-0.7-0.2-0.7-0.7v-2.4c0-0.4,0.1-1.2,0.1-1.2l0,0
			c0,0-0.4,0.8-0.6,1.2l-1.9,3.2h-1.8L161.7,50.5L161.7,50.5z"/>
		<path class="st9" d="M170.8,52.5l-1.7-2h1.6l1.7,2l-1.7,2h-1.6L170.8,52.5z M173.4,52.5l-1.7-2h1.6l1.7,2l-1.7,2h-1.6L173.4,52.5z
			"/>
		<path class="st9" d="M24.7,67.4c0-1.5,0.4-3.1,1.3-4.3h1.4c-0.8,1.3-1.2,2.7-1.2,4.1c0,1.5,0.4,2.9,1.2,4.3H26
			C25.1,70.4,24.7,68.9,24.7,67.4z"/>
		<path class="st9" d="M28.5,65.3h-0.7v-1.5h3.5c1.4,0,2.4,1,2.4,2.4s-0.9,2.5-2.4,2.5h-1v2.2h-1.8C28.5,70.9,28.5,65.3,28.5,65.3z
			 M31,67.2c0.6,0,0.9-0.4,0.9-1s-0.3-1-0.8-1h-0.7v1.9L31,67.2L31,67.2z"/>
		<path class="st9" d="M37.8,63.6c2.2,0,3.8,1.6,3.8,3.6c0,2.1-1.6,3.7-3.8,3.7S34,69.3,34,67.2C34.1,65.2,35.7,63.6,37.8,63.6z
			 M37.8,69.4c1,0,1.9-0.9,1.9-2.1c0-1.1-0.8-2-1.9-2c-1,0-1.9,0.9-1.9,2C36,68.5,36.8,69.4,37.8,69.4z"/>
		<path class="st9" d="M42.8,65.3h-0.7v-1.5h3c2.3,0,3.7,1.3,3.7,3.5s-1.5,3.6-3.7,3.6h-1.6c-0.5,0-0.7-0.2-0.7-0.7V65.3z
			 M44.8,69.4H45c1.2,0,1.9-0.7,1.9-2.1s-0.8-2-1.9-2h-0.4v3.9C44.6,69.3,44.6,69.4,44.8,69.4z"/>
		<path class="st9" d="M53.1,63.6c2.2,0,3.8,1.6,3.8,3.6c0,2.1-1.6,3.7-3.8,3.7s-3.8-1.6-3.8-3.7C49.3,65.2,50.9,63.6,53.1,63.6z
			 M53.1,69.4c1,0,1.9-0.9,1.9-2.1c0-1.1-0.8-2-1.9-2c-1,0-1.9,0.9-1.9,2C51.2,68.5,52,69.4,53.1,69.4z"/>
		<path class="st9" d="M57.4,69.4h0.8v-4.1h-0.8v-1.5h3.2v1.5h-0.8v4.1h0.8v1.5h-3.2V69.4z"/>
		<path class="st9" d="M61.3,69.4h0.4c0.1,0,0.2-0.1,0.2-0.2v-5.4h1.6l2,3.1c0.3,0.5,0.6,1.1,0.6,1.1l0,0c0,0-0.1-0.6-0.1-1.1v-2.3
			c0-0.5,0.2-0.7,0.7-0.7h1.7v1.5H68c-0.1,0-0.2,0.1-0.2,0.2V71h-1.6l-2-3c-0.3-0.4-0.6-1.1-0.6-1.1l0,0c0,0,0.1,0.6,0.1,1.1v2.3
			c0,0.5-0.2,0.7-0.7,0.7h-1.7C61.3,71,61.3,69.4,61.3,69.4z"/>
		<path class="st9" d="M70,68.6c0,0,0.7,0.8,1.7,0.8c0.4,0,0.7-0.1,0.7-0.5c0-0.8-3.3-0.9-3.3-3.1c0-1.3,1.1-2.1,2.6-2.1
			c1,0,2.3,0.5,2.3,1.5V66h-1.6v-0.3c0-0.3-0.4-0.4-0.7-0.4c-0.4,0-0.7,0.1-0.7,0.5c0,0.9,3.3,0.7,3.3,3.1c0,1.2-0.9,2.2-2.6,2.2
			C70,71,69,69.8,69,69.8L70,68.6z"/>
		<path class="st9" d="M77,65.3h-0.6c-0.1,0-0.2,0.1-0.2,0.2v0.4h-1.6v-1.4c0-0.5,0.2-0.7,0.7-0.7h5.2c0.5,0,0.7,0.2,0.7,0.7v1.4
			h-1.6v-0.4c0-0.1-0.1-0.2-0.2-0.2h-0.6v5.6H77V65.3z"/>
		<path class="st9" d="M81.7,69.4h0.8v-4.1h-0.8v-1.5h3.2v1.5h-0.8v4.1h0.8v1.5h-3.2V69.4z"/>
		<path class="st9" d="M87.8,65.3h-0.6c-0.1,0-0.2,0.1-0.2,0.2v0.4h-1.6v-1.4c0-0.5,0.2-0.7,0.7-0.7h5.2c0.5,0,0.7,0.2,0.7,0.7v1.4
			h-1.6v-0.4c0-0.1-0.1-0.2-0.2-0.2h-0.6v5.6h-1.8V65.3z"/>
		<path class="st9" d="M92.9,65.5c0-0.1-0.1-0.2-0.2-0.2h-0.4v-1.5H94c0.5,0,0.7,0.2,0.7,0.7v3.7c0,0.7,0.5,1.1,1.2,1.1
			s1.2-0.4,1.2-1.1v-3.7c0-0.5,0.2-0.7,0.7-0.7h1.7v1.5h-0.4c-0.1,0-0.2,0.1-0.2,0.2v2.8c0,1.6-1.2,2.7-3,2.7s-3-1.1-3-2.7
			L92.9,65.5L92.9,65.5z"/>
		<path class="st9" d="M102.2,65.3h-0.6c-0.1,0-0.2,0.1-0.2,0.2v0.4h-1.6v-1.4c0-0.5,0.2-0.7,0.7-0.7h5.2c0.5,0,0.7,0.2,0.7,0.7v1.4
			h-1.6v-0.4c0-0.1-0.1-0.2-0.2-0.2H104v5.6h-1.8V65.3z"/>
		<path class="st9" d="M107.8,67.3c0-1.4-0.4-2.9-1.2-4.1h1.4c0.8,1.2,1.3,2.7,1.3,4.3c0,1.5-0.4,3-1.3,4.1h-1.4
			C107.4,70.2,107.8,68.7,107.8,67.3z"/>
		<path class="st9" d="M113.2,65.3h-0.7v-1.5h3.3c1.4,0,2.5,0.6,2.5,1.9c0,0.8-0.5,1.3-0.8,1.5l0,0c0.8,0.2,1.1,1,1.1,1.6
			c0,1.6-1.3,2.1-2.7,2.1H114c-0.5,0-0.7-0.2-0.7-0.7v-4.9H113.2z M115.9,66.5c0.4,0,0.6-0.3,0.6-0.7c0-0.3-0.2-0.6-0.6-0.6H115v1.3
			C115,66.5,115.9,66.5,115.9,66.5z M115.2,69.4h0.9c0.5,0,0.7-0.3,0.7-0.7c0-0.4-0.2-0.7-0.7-0.7H115v1.3
			C114.9,69.3,115,69.4,115.2,69.4z"/>
		<path class="st9" d="M122.4,65.3h-0.7v-1.5h4.5c0.5,0,0.7,0.2,0.7,0.7v1.4h-1.6v-0.4c0-0.1-0.1-0.2-0.2-0.2h-1v5.6h-1.8
			L122.4,65.3L122.4,65.3z"/>
		<path class="st9" d="M126.8,69.2h1.6v1.6h-1.6C126.8,70.8,126.8,69.2,126.8,69.2z"/>
		<path class="st9" d="M131.7,69.4h0.3c0.1,0,0.2-0.1,0.2-0.2l0.4-5.4h1.9l1.2,2.8c0.2,0.4,0.4,1,0.4,1l0,0c0,0,0.2-0.6,0.4-1
			l1.2-2.8h1.9l0.4,5.4c0,0.1,0.1,0.2,0.2,0.2h0.3v1.5H139c-0.5,0-0.7-0.2-0.7-0.7l-0.2-2.3c0-0.5,0-1.2,0-1.2l0,0
			c0,0-0.2,0.8-0.4,1.2l-0.8,1.9h-1.4l-0.8-1.9c-0.2-0.4-0.4-1.2-0.4-1.2l0,0c0,0,0,0.7,0,1.2l-0.2,2.3c0,0.5-0.2,0.7-0.7,0.7h-1.5
			v-1.5H131.7z"/>
		<path class="st9" d="M144.6,63.6c2.2,0,3.8,1.6,3.8,3.6c0,2.1-1.6,3.7-3.8,3.7s-3.8-1.6-3.8-3.7C140.9,65.2,142.4,63.6,144.6,63.6
			z M144.6,69.4c1,0,1.9-0.9,1.9-2.1c0-1.1-0.8-2-1.9-2c-1,0-1.9,0.9-1.9,2C142.7,68.5,143.6,69.4,144.6,69.4z"/>
		<path class="st9" d="M152.6,63.6c0.9,0,2.8,0.3,2.8,1.7v0.9h-1.6v-0.4c0-0.4-0.6-0.6-1.1-0.6c-1,0-1.9,0.7-1.9,2
			c0,1.2,0.9,2.1,1.9,2.1c1.3,0,2.1-0.9,2.1-0.9l0.9,1.3c0,0-1.1,1.3-3,1.3c-2.3,0-3.8-1.6-3.8-3.8
			C148.9,65.2,150.5,63.6,152.6,63.6z"/>
		<path class="st9" d="M156.7,65.5c0-0.1-0.1-0.2-0.2-0.2h-0.4v-1.5h1.7c0.5,0,0.7,0.2,0.7,0.7v2h0.2c0.3,0,0.4,0,0.6-0.2l1.2-2.5h2
			l-1.4,2.9c-0.2,0.5-0.5,0.6-0.5,0.6l0,0c0,0,0.3,0.1,0.6,0.6l0.7,1.3c0.1,0.2,0.3,0.2,0.5,0.2h0.2v1.5h-1.1c-0.5,0-0.8-0.1-1-0.5
			l-1.1-2.1c-0.1-0.2-0.3-0.2-0.6-0.2h-0.1V71h-1.8v-5.5H156.7z"/>
		<path class="st9" d="M163.5,65.3h-0.7v-1.5h3.3c1.4,0,2.5,0.6,2.5,1.9c0,0.8-0.5,1.3-0.8,1.5l0,0c0.8,0.2,1.1,1,1.1,1.6
			c0,1.6-1.3,2.1-2.7,2.1h-1.9c-0.5,0-0.7-0.2-0.7-0.7v-4.9H163.5z M166.2,66.5c0.4,0,0.6-0.3,0.6-0.7c0-0.3-0.2-0.6-0.6-0.6h-0.9
			v1.3C165.3,66.5,166.2,66.5,166.2,66.5z M165.5,69.4h0.9c0.5,0,0.7-0.3,0.7-0.7c0-0.4-0.2-0.7-0.7-0.7h-1.1v1.3
			C165.3,69.3,165.4,69.4,165.5,69.4z"/>
		<path class="st9" d="M169.2,69.4h0.2c0.2,0,0.2,0,0.3-0.2l2-5.4h1.9l2,5.4c0.1,0.2,0.1,0.2,0.3,0.2h0.2v1.5h-1.2
			c-0.5,0-0.7-0.1-0.8-0.6l-0.3-0.9h-2.1l-0.3,0.9c-0.1,0.4-0.3,0.6-0.8,0.6h-1.2v-1.5H169.2z M173.2,67.9l-0.4-1.2
			c-0.1-0.4-0.3-1.2-0.3-1.2l0,0c0,0-0.2,0.7-0.3,1.2l-0.4,1.2H173.2z"/>
	</g>
</g>
</svg>
